<svg id="Layer_1" data-name="Layer 1" xmlns="http://www.w3.org/2000/svg" xmlns:xlink="http://www.w3.org/1999/xlink" viewBox="0 0 1887.59 388.66"><defs><style>.cls-1{fill:none;}.cls-2{fill:#2068a4;}.cls-3{clip-path:url(#clip-path);}.cls-4{clip-path:url(#clip-path-2);}.cls-5{fill:#2093cd;}.cls-6{fill:#b86652;}.cls-7{fill:#207eb9;}.cls-8{fill:#5dc632;}.cls-9{fill:#2ebf1f;}.cls-10{fill:#fff;}.cls-11{clip-path:url(#clip-path-3);}.cls-12{fill:#64c22e;}</style><clipPath id="clip-path"><path class="cls-1" d="M614.61,164.32l-150-137.6-21.1,23,125,114.6H75.81l125-114.7-21.1-23-150,137.7h-.1V255c0,41,39.5,74.4,88,74.4h92.5c48.5,0,88-33.4,88-74.4v-59.6h48V255c0,41,39.5,74.4,88,74.4h92.5c48.5,0,88-33.4,88-74.4Z"/></clipPath><clipPath id="clip-path-2"><circle class="cls-1" cx="163.86" cy="284.07" r="89.72"/></clipPath><clipPath id="clip-path-3"><circle class="cls-1" cx="480.36" cy="284.07" r="89.72"/></clipPath></defs><path class="cls-2" d="M614.61,164.32l-150-137.6-21.1,23,125,114.6H75.81l125-114.7-21.1-23-150,137.7h-.1V255c0,41,39.5,74.4,88,74.4h92.5c48.5,0,88-33.4,88-74.4v-59.6h48V255c0,41,39.5,74.4,88,74.4h92.5c48.5,0,88-33.4,88-74.4Z"/><g class="cls-3"><g class="cls-4"><path class="cls-5" d="M241.74,239.49a67.33,67.33,0,0,1-94.45-29.3,77.58,77.58,0,0,0-19.9,13.18,67.28,67.28,0,0,1,12,123.5A77.51,77.51,0,0,0,245.65,321a89.9,89.9,0,0,0-3.91-81.51Z"/><path class="cls-6" d="M179.53,358.09a77.1,77.1,0,0,1-40.18-11.22,67.09,67.09,0,0,1-30.61,8A89.74,89.74,0,0,0,245.65,321,77.42,77.42,0,0,1,179.53,358.09Z"/><path class="cls-6" d="M107.47,220.37a67.47,67.47,0,0,1,19.91,3,77.86,77.86,0,0,1,19.91-13.17,66.43,66.43,0,0,1-4.7-13.3,89.61,89.61,0,0,0-42.3,23.86A68.06,68.06,0,0,1,107.47,220.37Z"/><path class="cls-7" d="M241.74,239.49a90.33,90.33,0,0,0-19.11-23.22,77.56,77.56,0,0,0-75.34-6.08,67.33,67.33,0,0,0,94.45,29.3Z"/><path class="cls-6" d="M142.58,196.89a66.45,66.45,0,0,0,4.71,13.3,77.56,77.56,0,0,1,75.34,6.08,89.91,89.91,0,0,0-80-19.38Z"/><path class="cls-8" d="M174.73,287.63a67.29,67.29,0,0,0-47.35-64.27,77.47,77.47,0,0,0,11.94,123.49A67.19,67.19,0,0,0,174.73,287.63Z"/><path class="cls-9" d="M102.07,280.63a77.26,77.26,0,0,1,25.31-57.27,67.85,67.85,0,0,0-27.09-2.61,89.73,89.73,0,0,0,8.45,134.11,67,67,0,0,0,30.58-8A77.42,77.42,0,0,1,102.07,280.63Z"/><path class="cls-10" d="M147.32,210.17a77.5,77.5,0,0,1,75.4,6.19,89.38,89.38,0,0,0-58.47-22,99.65,99.65,0,0,0-14.44,1.09,89.38,89.38,0,0,0-23.24,7c9.79,20.12,19.13,28.11,27.26,36.48A67.24,67.24,0,0,1,170.89,310h0a32.33,32.33,0,0,1-2.09,5.24s17.08-21.69,10.65-50.31C172.21,232.75,153.35,226.27,147.32,210.17Z"/></g><g class="cls-11"><path class="cls-5" d="M558.24,239.49a67.33,67.33,0,0,1-94.45-29.3,77.58,77.58,0,0,0-19.9,13.18,67.28,67.28,0,0,1,12,123.5A77.51,77.51,0,0,0,562.15,321a89.9,89.9,0,0,0-3.91-81.51Z"/><path class="cls-6" d="M496,358.09a77.1,77.1,0,0,1-40.18-11.22,67.09,67.09,0,0,1-30.61,8A89.74,89.74,0,0,0,562.15,321,77.42,77.42,0,0,1,496,358.09Z"/><path class="cls-6" d="M424,220.37a67.47,67.47,0,0,1,19.91,3,77.86,77.86,0,0,1,19.91-13.17,66.43,66.43,0,0,1-4.7-13.3,89.61,89.61,0,0,0-42.3,23.86A68.06,68.06,0,0,1,424,220.37Z"/><path class="cls-7" d="M558.24,239.49a90.33,90.33,0,0,0-19.11-23.22,77.56,77.56,0,0,0-75.34-6.08,67.33,67.33,0,0,0,94.45,29.3Z"/><path class="cls-6" d="M459.08,196.89a66.45,66.45,0,0,0,4.71,13.3,77.56,77.56,0,0,1,75.34,6.08,89.91,89.91,0,0,0-80.05-19.38Z"/><path class="cls-8" d="M491.23,287.63a67.29,67.29,0,0,0-47.35-64.27,77.47,77.47,0,0,0,11.94,123.49A67.19,67.19,0,0,0,491.23,287.63Z"/><path class="cls-9" d="M418.57,280.63a77.26,77.26,0,0,1,25.31-57.27,67.85,67.85,0,0,0-27.09-2.61,89.73,89.73,0,0,0,8.45,134.11,67,67,0,0,0,30.58-8A77.42,77.42,0,0,1,418.57,280.63Z"/><path class="cls-10" d="M463.82,210.17a77.5,77.5,0,0,1,75.4,6.19,89.38,89.38,0,0,0-58.47-22,99.65,99.65,0,0,0-14.44,1.09,89.38,89.38,0,0,0-23.24,7c9.79,20.12,19.13,28.11,27.26,36.48A67.24,67.24,0,0,1,487.39,310h0a32.33,32.33,0,0,1-2.09,5.24S502.38,293.59,496,265C488.71,232.75,469.85,226.27,463.82,210.17Z"/></g></g><path class="cls-5" d="M697.6,163.34a27.44,27.44,0,0,1-14.58-4,30.67,30.67,0,0,1-10.47-10.47,27.49,27.49,0,0,1-3.89-14.47V86.76H775.75V63.83a5.54,5.54,0,0,0-1.56-3.9,5,5,0,0,0-3.79-1.67H668.66v-24H771.07a28.12,28.12,0,0,1,14.58,3.9,29.18,29.18,0,0,1,10.47,10.58A28.27,28.27,0,0,1,800,63.16V163.34Zm.67-24h77.48V109.24h-83v24.49a5.71,5.71,0,0,0,5.57,5.57Zm164.08,24L811.59,34.21h25.6l35,85.5,37.18-85.5h27.38l39.41,85.72,32.73-85.72h25.6L985.92,163.34h-19.6L923.13,67.61l-41.19,95.73Zm197-4a31.94,31.94,0,0,1-10.47-10.47,26.87,26.87,0,0,1-4-14.47V63.16a26.89,26.89,0,0,1,4-14.47,31.94,31.94,0,0,1,10.47-10.47,26.87,26.87,0,0,1,14.47-4h73.47a28.12,28.12,0,0,1,14.58,3.9,29.15,29.15,0,0,1,10.46,10.58,28.18,28.18,0,0,1,3.9,14.47V110.8H1069v22.93a5.71,5.71,0,0,0,5.56,5.57h101.75v24H1073.86A26.86,26.86,0,0,1,1059.39,159.34Zm9.57-71h83V63.83a5.54,5.54,0,0,0-1.56-3.9,5,5,0,0,0-3.78-1.67h-72.14a5.71,5.71,0,0,0-5.56,5.57Zm142.93,71a32,32,0,0,1-10.47-10.47,26.86,26.86,0,0,1-4-14.47v-3.34h24v2.67a5.71,5.71,0,0,0,5.57,5.57h72.13a5,5,0,0,0,3.78-1.67,5.52,5.52,0,0,0,1.56-3.9V116.37a5.56,5.56,0,0,0-1.56-3.9,5,5,0,0,0-3.78-1.67h-72.8a27.52,27.52,0,0,1-14.47-3.89,30.76,30.76,0,0,1-10.47-10.47,27.44,27.44,0,0,1-4-14.58V63.16a26.88,26.88,0,0,1,4-14.47,32,32,0,0,1,10.47-10.47,26.89,26.89,0,0,1,14.47-4h73.47a27.47,27.47,0,0,1,14.58,4,30.67,30.67,0,0,1,10.47,10.47,27.52,27.52,0,0,1,3.89,14.47V66.5H1304.5V63.83a5.54,5.54,0,0,0-1.56-3.9,5,5,0,0,0-3.78-1.67H1227a5.71,5.71,0,0,0-5.57,5.57V81.19a5.71,5.71,0,0,0,5.57,5.57h72.8a28.11,28.11,0,0,1,14.58,3.89,29.5,29.5,0,0,1,10.47,10.47,28.11,28.11,0,0,1,3.89,14.58v18.7a27.49,27.49,0,0,1-3.89,14.47,30.67,30.67,0,0,1-10.47,10.47,27.46,27.46,0,0,1-14.58,4h-73.47A26.88,26.88,0,0,1,1211.89,159.34Zm151.84,0a31.94,31.94,0,0,1-10.47-10.47,26.87,26.87,0,0,1-4-14.47V63.16a26.89,26.89,0,0,1,4-14.47,31.94,31.94,0,0,1,10.47-10.47,26.87,26.87,0,0,1,14.47-4h73.47a28.12,28.12,0,0,1,14.58,3.9,29.18,29.18,0,0,1,10.47,10.58,28.27,28.27,0,0,1,3.89,14.47V134.4a27.49,27.49,0,0,1-3.89,14.47,30.67,30.67,0,0,1-10.47,10.47,27.46,27.46,0,0,1-14.58,4H1378.2A26.86,26.86,0,0,1,1363.73,159.34Zm15.14-20H1451a5,5,0,0,0,3.79-1.67,5.55,5.55,0,0,0,1.55-3.9V63.83a5.57,5.57,0,0,0-1.55-3.9,5,5,0,0,0-3.79-1.67h-72.13a5.71,5.71,0,0,0-5.57,5.57v69.9a5.71,5.71,0,0,0,5.57,5.57Zm125.11,24V34.21h165a27.31,27.31,0,0,1,14.69,4A30.94,30.94,0,0,1,1694,48.69a27.43,27.43,0,0,1,3.9,14.47V163.34h-23.82V63.83a5.71,5.71,0,0,0-5.57-5.57h-49.65a5.22,5.22,0,0,0-4,1.67,5.54,5.54,0,0,0-1.56,3.9v99.51H1589V63.83a5.71,5.71,0,0,0-5.57-5.57h-49.87a5,5,0,0,0-3.78,1.67,5.54,5.54,0,0,0-1.56,3.9v99.51Zm228.21-4a31.94,31.94,0,0,1-10.47-10.47,26.87,26.87,0,0,1-4-14.47V63.16a26.89,26.89,0,0,1,4-14.47,31.94,31.94,0,0,1,10.47-10.47,26.87,26.87,0,0,1,14.47-4h73.47a28.12,28.12,0,0,1,14.58,3.9,29.15,29.15,0,0,1,10.46,10.58,28.18,28.18,0,0,1,3.9,14.47V110.8H1741.76v22.93a5.71,5.71,0,0,0,5.56,5.57h101.75v24H1746.66A26.86,26.86,0,0,1,1732.19,159.34Zm9.57-71h83V63.83a5.54,5.54,0,0,0-1.56-3.9,5,5,0,0,0-3.78-1.67h-72.14a5.71,5.71,0,0,0-5.56,5.57Z"/><path class="cls-12" d="M668.66,328.45V228.27a26.8,26.8,0,0,1,4-14.47,31.59,31.59,0,0,1,10.57-10.47,27.06,27.06,0,0,1,14.36-4h72.14v24.05H698.27a5.71,5.71,0,0,0-5.57,5.57v99.51Zm139.15-4A31.94,31.94,0,0,1,797.34,314a26.87,26.87,0,0,1-4-14.47V228.27a26.89,26.89,0,0,1,4-14.47,31.94,31.94,0,0,1,10.47-10.47,26.87,26.87,0,0,1,14.47-4h73.47a28.12,28.12,0,0,1,14.58,3.9,29.07,29.07,0,0,1,10.46,10.58,28.18,28.18,0,0,1,3.9,14.47v47.64H817.38v22.93a5.71,5.71,0,0,0,5.57,5.57H924.69v24H822.28A26.86,26.86,0,0,1,807.81,324.45Zm9.57-71h83V228.94a5.54,5.54,0,0,0-1.56-3.9,5,5,0,0,0-3.78-1.67H823a5.71,5.71,0,0,0-5.57,5.57Zm168.09,75a27.47,27.47,0,0,1-14.59-4A30.56,30.56,0,0,1,960.42,314a27.41,27.41,0,0,1-3.9-14.47V251.87h107.09V228.94a5.54,5.54,0,0,0-1.56-3.9,5,5,0,0,0-3.78-1.67H956.52V199.32h102.42a28.12,28.12,0,0,1,14.58,3.9A29.15,29.15,0,0,1,1084,213.8a28.18,28.18,0,0,1,3.9,14.47V328.45Zm.66-24h77.48V274.35h-83v24.49a5.71,5.71,0,0,0,5.56,5.57Zm134.25,75.25V199.32h102.41a27.48,27.48,0,0,1,14.59,4,30.73,30.73,0,0,1,10.46,10.47,27.43,27.43,0,0,1,3.9,14.47v71.24a27.41,27.41,0,0,1-3.9,14.47,30.73,30.73,0,0,1-10.46,10.47,27.47,27.47,0,0,1-14.59,4h-78.36v51.21ZM1150,304.41h72.14a5.71,5.71,0,0,0,5.56-5.57v-69.9a5.71,5.71,0,0,0-5.56-5.57H1150a5.69,5.69,0,0,0-5.56,5.57v69.9a5.69,5.69,0,0,0,5.56,5.57Zm140.93,20A31.94,31.94,0,0,1,1280.45,314a26.87,26.87,0,0,1-4-14.47V228.27a26.89,26.89,0,0,1,4-14.47,31.94,31.94,0,0,1,10.47-10.47,26.87,26.87,0,0,1,14.47-4h73.47a28.12,28.12,0,0,1,14.58,3.9,29.18,29.18,0,0,1,10.47,10.58,28.27,28.27,0,0,1,3.89,14.47v47.64H1300.49v22.93a5.71,5.71,0,0,0,5.57,5.57H1407.8v24H1305.39A26.86,26.86,0,0,1,1290.92,324.45Zm9.57-71h83V228.94A5.57,5.57,0,0,0,1382,225a5,5,0,0,0-3.79-1.67h-72.13a5.71,5.71,0,0,0-5.57,5.57Zm137.81,75V228.27a26.8,26.8,0,0,1,4-14.47,31.59,31.59,0,0,1,10.57-10.47,27.09,27.09,0,0,1,14.36-4h72.14v24.05h-71.47a5.71,5.71,0,0,0-5.57,5.57v99.51Z"/></svg>